<svg xmlns="http://www.w3.org/2000/svg" xmlns:xlink="http://www.w3.org/1999/xlink" version="1.1" x="0px" y="0px" viewBox="0 0 100 125" enable-background="new 0 0 100 100" xml:space="preserve"><polygon points="15.803,47.38 13.42,42.567 11.037,47.38 5.755,48.19 9.588,51.981 8.609,57.433 13.42,54.877 18.231,57.433   17.253,51.981 21.085,48.19 "/><polygon points="34.093,47.38 31.71,42.567 29.327,47.38 24.045,48.19 27.878,51.981 26.899,57.433 31.71,54.877 36.521,57.433   35.543,51.981 39.375,48.19 "/><polygon points="52.383,47.38 50,42.567 47.617,47.38 42.335,48.19 46.168,51.981 45.189,57.433 50,54.877 54.811,57.433   53.832,51.981 57.665,48.19 "/><polygon points="70.673,47.38 68.29,42.567 65.907,47.38 60.625,48.19 64.457,51.981 63.479,57.433 68.29,54.877 73.101,57.433   72.122,51.981 75.955,48.19 "/><polygon points="94.245,48.19 88.963,47.38 86.58,42.567 84.197,47.38 78.915,48.19 82.747,51.981 81.769,57.433 86.58,54.877   91.391,57.433 90.412,51.981 "/><text x="0" y="115" fill="#000000" font-size="5px" font-weight="bold" font-family="'Helvetica Neue', Helvetica, Arial-Unicode, Arial, Sans-serif"></text><text x="0" y="120" fill="#000000" font-size="5px" font-weight="bold" font-family="'Helvetica Neue', Helvetica, Arial-Unicode, Arial, Sans-serif"></text></svg>